<?xml version="1.0" standalone="no"?>
<!DOCTYPE svg PUBLIC "-//W3C//DTD SVG 20010904//EN"
 "http://www.w3.org/TR/2001/REC-SVG-20010904/DTD/svg10.dtd">
<svg version="1.0" xmlns="http://www.w3.org/2000/svg"
 width="126.000000pt" height="126.000000pt" viewBox="0 0 126.000000 126.000000"
 preserveAspectRatio="xMidYMid meet">
<metadata>
Created by potrace 1.11, written by Peter Selinger 2001-2013
</metadata>
<g transform="translate(0.000000,126.000000) scale(0.100000,-0.100000)"
fill="#000000" stroke="none">
<path d="M537 1246 l-38 -11 18 -25 c10 -14 35 -59 55 -100 l38 -75 -108 -3
c-98 -3 -108 -1 -122 17 -8 12 -40 57 -70 101 -53 79 -56 81 -89 76 -18 -3
-36 -7 -38 -10 -3 -3 17 -32 44 -65 26 -33 56 -73 66 -90 l18 -31 -128 0 -129
0 -1 -150 c0 -82 3 -150 6 -151 30 -5 61 -5 62 0 1 3 2 58 3 121 l1 115 503 2
502 2 0 -123 0 -123 28 3 c15 1 32 2 37 3 6 1 10 58 10 151 l0 149 -138 3
-137 3 23 25 c12 14 44 55 70 91 50 71 50 80 -4 94 -24 6 -29 1 -54 -47 -15
-29 -48 -79 -72 -110 l-44 -58 -83 0 -82 0 -23 54 c-12 30 -36 81 -54 113
l-32 60 -38 -11z"/>
<path d="M250 790 l0 -35 330 2 c181 2 330 -1 330 -5 0 -10 -144 -106 -206
-137 -29 -14 -65 -25 -81 -25 -29 0 -29 -1 -29 -57 l1 -56 -225 -1 c-124 -1
-246 2 -272 5 -59 7 -78 -3 -73 -39 2 -15 4 -31 4 -36 1 -4 8 -5 17 -2 13 5
222 8 479 6 l71 0 -1 -155 c0 -101 -4 -158 -11 -165 -13 -13 -97 -15 -187 -5
-31 3 -57 4 -57 0 0 -3 6 -21 14 -39 l14 -34 132 2 c176 1 168 -9 170 218 0
95 2 174 4 175 4 4 511 4 541 0 17 -2 20 4 20 38 l0 40 -40 -4 c-34 -3 -454
-5 -507 -2 -13 1 -18 9 -18 29 0 23 9 31 62 57 74 36 217 129 273 178 l40 36
-20 20 c-20 20 -31 21 -398 23 l-377 3 0 -35z"/>
</g>
</svg>
